<?xml version="1.0" encoding="utf-8"?>
<!-- Generator: Adobe Illustrator 27.7.0, SVG Export Plug-In . SVG Version: 6.00 Build 0)  -->
<svg version="1.1" id="Layer_1" xmlns="http://www.w3.org/2000/svg" xmlns:xlink="http://www.w3.org/1999/xlink" x="0px" y="0px"
	 viewBox="0 0 2708.2 1321.4" style="enable-background:new 0 0 2708.2 1321.4;" xml:space="preserve">
<style type="text/css">
	.st0{fill:#6FBFCB;}
	.st1{fill:#FFFFFF;}
	.st2{fill:none;}
</style>
<g id="Layer_19_xA0_Image_00000071528007606743405840000015427529826794193803_">
</g>
<g id="Layer_12_xA0_Image_00000173844150415866847790000011361503530599989667_">
</g>
<g id="Layer_14_copy_xA0_Image_00000013872613422749720120000005003768955397206711_">
</g>
<g id="feira_de_arte">
</g>
<g id="outra">
	<path class="st0" d="M1301.5,63.1L99.1,1265.5h33.6h40.9h2461V63.1H1301.5z M1403.3,964.1h-1.3c-1-3-2.1-5.7-3.2-8
		c-1.2-2.3-2.6-4.2-4.2-5.8s-3.6-2.8-5.8-3.6c-2.2-0.8-4.9-1.2-8.1-1.2h-19.2v37.8h7.5c2.6,0,4.7-0.2,6.5-0.7
		c1.8-0.5,3.3-1.3,4.6-2.6c1.3-1.3,2.3-3,3.2-5.2s1.8-5.1,2.6-8.6h1.3v36.3h-1.3c-0.5-2.2-1.1-4.4-1.7-6.5c-0.6-2.1-1.4-4-2.4-5.6
		s-2.4-2.9-4.2-3.9c-1.7-1-4-1.5-6.8-1.5h-9.4v40.4h12.9v1.6h-37.3v-1.6h12.9v-79.8h-12.9v-1.6h66.3L1403.3,964.1L1403.3,964.1z
		 M1496.6,1027h-70.7v-1.6h12.9v-79.8h-12.9v-1.6h66.3v20.2h-1.3c-1-3-2.1-5.7-3.2-8c-1.2-2.3-2.6-4.2-4.2-5.8s-3.6-2.8-5.8-3.6
		c-2.2-0.8-4.9-1.2-8.1-1.2h-19.2v36h7.5c2.6,0,4.7-0.2,6.5-0.7c1.8-0.5,3.3-1.3,4.6-2.6c1.3-1.3,2.4-3,3.2-5.2
		c0.9-2.2,1.8-5.1,2.6-8.6h1.3v36.3h-1.3c-0.5-2.2-1.1-4.4-1.7-6.5c-0.6-2.1-1.4-4-2.4-5.6s-2.4-2.9-4.2-3.9c-1.7-1-4-1.5-6.8-1.5
		h-9.4v42.1h21.9c4.2,0,7.8-0.9,10.6-2.7c2.8-1.8,5.1-4,6.9-6.5c1.8-2.5,3.1-5.2,3.9-7.9c0.8-2.7,1.4-5,1.6-6.8h1.3L1496.6,1027
		L1496.6,1027z M1556.7,945.5h-12.9v79.8h12.9v1.6h-37.3v-1.6h12.9v-79.8h-12.9v-1.6h37.3V945.5z M1654.3,1025.7
		c-0.5,0.3-1.1,0.7-1.9,1c-0.8,0.3-1.7,0.6-2.8,0.8c-1.1,0.2-2.5,0.3-4.1,0.3c-3.1,0-5.7-0.4-7.7-1.2c-2.1-0.8-3.7-1.9-4.9-3.4
		c-1.2-1.5-2.1-3.4-2.7-5.6s-1-4.8-1.2-7.8l-0.8-10.6c-0.3-3.9-1.1-6.9-2.3-9.1s-2.7-3.8-4.3-4.8c-1.7-1-3.4-1.6-5.2-1.8
		c-1.8-0.2-3.3-0.3-4.6-0.3h-11.6v42.1h12.9v1.6h-37.3v-1.6h12.9v-79.8h-12.9v-1.6h22c0.9,0,1.8,0,2.8-0.1s1.8-0.1,2.8-0.2
		c0.9,0,1.8,0,2.8-0.1s1.8-0.1,2.8-0.1c4.6,0,8.6,0.2,12.1,0.8c3.5,0.5,6.7,2,9.7,4.4c2.7,2.1,4.6,4.5,5.7,7.1
		c1.1,2.6,1.7,5.1,1.7,7.5c0,1.2-0.2,2.7-0.6,4.5c-0.4,1.8-1.3,3.7-2.8,5.6s-3.5,3.7-6.2,5.2s-6.3,2.7-10.8,3.2v0.2
		c1.2,0.2,2.9,0.5,5,0.9c2.1,0.4,4.3,1.2,6.5,2.2c2.2,1,4.2,2.3,6.1,4c1.8,1.7,3.2,3.8,3.9,6.5c0.5,1.6,0.8,3.3,1,5.3s0.3,4,0.5,6.1
		c0.1,2.1,0.2,4.1,0.3,6.1c0.1,1.9,0.3,3.6,0.6,4.9c0.5,2,1.2,3.8,2.2,5.5c1,1.6,2.6,2.5,4.9,2.5c1,0,2-0.2,3.1-0.6
		c1.1-0.4,2-1,2.9-1.9l1,1.3C1655.3,1025.1,1654.8,1025.4,1654.3,1025.7z M1753.3,1027h-35.7v-1.6h12.9l-12.2-32.4h-26.9l-12.2,32.4
		h12.9v1.6h-24.9v-1.6h10.2l31.3-83.5h2.8l31.5,83.5h10.3L1753.3,1027L1753.3,1027z M1892.2,999.2c-1.2,4.1-2.9,7.7-5.1,10.8
		c-2.2,3.2-4.7,5.9-7.6,8.2c-2.9,2.3-6,4.1-9.3,5.5c-1.8,0.9-3.6,1.5-5.3,2c-1.7,0.5-3.4,0.8-5.1,1.1c-1.7,0.2-3.7,0.4-5.7,0.5
		s-4.5,0.1-7.2,0.1c-1.2,0-2.4,0-3.7-0.1c-1.3,0-2.6-0.1-3.9-0.2c-1.3-0.1-2.6-0.1-3.9-0.2c-1.3,0-2.5-0.1-3.7-0.1H1812v-1.6h12.9
		v-79.8H1812v-1.6h21.6c1.1,0,2.2,0,3.2-0.1s2.2-0.1,3.2-0.2c1.1,0,2.2,0,3.2-0.1s2.2-0.1,3.2-0.1c2.3,0,4.4,0,6.2,0.1
		c1.8,0.1,3.5,0.2,5.1,0.4c1.6,0.2,3.1,0.5,4.5,0.8c1.4,0.3,2.9,0.8,4.6,1.3c4.7,1.6,8.8,3.6,12.2,6.2c3.4,2.6,6.3,5.6,8.5,9
		s3.8,7.2,4.9,11.2c1,4,1.6,8.3,1.6,12.7C1894.1,990.6,1893.4,995.2,1892.2,999.2z M1988.7,1027H1918v-1.6h12.9v-79.8H1918v-1.6
		h66.3v20.2h-1.3c-1-3-2.1-5.7-3.2-8c-1.2-2.3-2.6-4.2-4.2-5.8s-3.6-2.8-5.8-3.6c-2.2-0.8-4.9-1.2-8.1-1.2h-19.2v36h7.5
		c2.6,0,4.7-0.2,6.5-0.7c1.8-0.5,3.3-1.3,4.6-2.6c1.3-1.3,2.4-3,3.2-5.2c0.9-2.2,1.8-5.1,2.6-8.6h1.3v36.3h-1.3
		c-0.5-2.2-1.1-4.4-1.7-6.5c-0.6-2.1-1.4-4-2.4-5.6s-2.4-2.9-4.2-3.9c-1.7-1-4-1.5-6.8-1.5h-9.4v42.1h21.9c4.2,0,7.8-0.9,10.6-2.7
		c2.8-1.8,5.1-4,6.9-6.5c1.8-2.5,3.1-5.2,3.9-7.9c0.8-2.7,1.4-5,1.6-6.8h1.3L1988.7,1027L1988.7,1027z M2131.1,1027h-35.7v-1.6h12.9
		l-12.2-32.4h-26.9l-12.2,32.4h12.9v1.6H2045v-1.6h10.2l31.3-83.5h2.8l31.5,83.5h10.3V1027z M2224.7,1025.7c-0.5,0.3-1.1,0.7-1.9,1
		c-0.8,0.3-1.7,0.6-2.8,0.8c-1.1,0.2-2.5,0.3-4.1,0.3c-3.1,0-5.7-0.4-7.7-1.2c-2.1-0.8-3.7-1.9-4.9-3.4c-1.2-1.5-2.1-3.4-2.7-5.6
		s-1-4.8-1.2-7.8l-0.8-10.6c-0.3-3.9-1.1-6.9-2.3-9.1s-2.7-3.8-4.3-4.8c-1.7-1-3.4-1.6-5.2-1.8c-1.8-0.2-3.3-0.3-4.6-0.3h-11.6v42.1
		h12.9v1.6H2146v-1.6h12.9v-79.8H2146v-1.6h22c0.9,0,1.9,0,2.8-0.1s1.9-0.1,2.8-0.2c0.9,0,1.9,0,2.8-0.1s1.9-0.1,2.8-0.1
		c4.6,0,8.6,0.2,12.1,0.8c3.5,0.5,6.7,2,9.7,4.4c2.7,2.1,4.6,4.5,5.7,7.1c1.1,2.6,1.7,5.1,1.7,7.5c0,1.2-0.2,2.7-0.6,4.5
		c-0.4,1.8-1.4,3.7-2.8,5.6s-3.5,3.7-6.2,5.2s-6.3,2.7-10.8,3.2v0.2c1.2,0.2,2.9,0.5,5,0.9c2.1,0.4,4.3,1.2,6.5,2.2
		c2.2,1,4.2,2.3,6.1,4c1.9,1.7,3.2,3.8,3.9,6.5c0.5,1.6,0.8,3.3,1,5.3s0.4,4,0.5,6.1c0.1,2.1,0.2,4.1,0.4,6.1
		c0.1,1.9,0.3,3.6,0.6,4.9c0.5,2,1.2,3.8,2.2,5.5c1,1.6,2.6,2.5,4.9,2.5c1,0,2-0.2,3.1-0.6c1.1-0.4,2-1,2.9-1.9l1,1.3
		C2225.7,1025.1,2225.2,1025.4,2224.7,1025.7z M2309.1,965.2h-1.3c-1.3-4.7-2.9-8.5-4.7-11.1c-1.8-2.7-3.7-4.7-5.7-5.9
		s-3.9-2-5.9-2.3c-1.9-0.3-3.7-0.4-5.2-0.4h-6.7v79.8h12.9v1.6h-37.3v-1.6h12.9v-79.8h-6.7c-1.6,0-3.3,0.1-5.2,0.4
		c-1.9,0.3-3.9,1-5.9,2.3c-2,1.2-3.9,3.2-5.7,5.9c-1.8,2.7-3.4,6.4-4.7,11.1h-1.3v-21.3h70.4L2309.1,965.2L2309.1,965.2z
		 M2399.2,1027h-70.7v-1.6h12.9v-79.8h-12.9v-1.6h66.3v20.2h-1.3c-1-3-2.1-5.7-3.2-8c-1.2-2.3-2.6-4.2-4.2-5.8
		c-1.6-1.6-3.6-2.8-5.8-3.6c-2.2-0.8-4.9-1.2-8.1-1.2H2353v36h7.5c2.6,0,4.7-0.2,6.5-0.7c1.8-0.5,3.3-1.3,4.6-2.6
		c1.3-1.3,2.4-3,3.2-5.2c0.9-2.2,1.8-5.1,2.6-8.6h1.3v36.3h-1.3c-0.5-2.2-1.1-4.4-1.7-6.5c-0.6-2.1-1.4-4-2.4-5.6s-2.4-2.9-4.2-3.9
		c-1.7-1-4-1.5-6.8-1.5h-9.4v42.1h21.9c4.2,0,7.8-0.9,10.6-2.7c2.8-1.8,5.1-4,6.9-6.5c1.8-2.5,3.1-5.2,3.9-7.9
		c0.9-2.7,1.4-5,1.6-6.8h1.3L2399.2,1027L2399.2,1027z M2399.4,850.9H1333.9v-22.6h1065.5L2399.4,850.9L2399.4,850.9z"/>
	
		<image style="overflow:visible;enable-background:new    ;" width="2084" height="2084" id="Layer_12_copy_xA0_Image_00000025443486000423894910000004093282980844519047_" xlink:href="38E217939472727F.png"  transform="matrix(0.4798 0 0 0.4798 234.5111 164.3648)">
	</image>
	
		<image style="overflow:visible;enable-background:new    ;" width="2084" height="2084" id="Layer_12_copy_xA0_Image_00000086665183982385373090000005068843039129859478_" xlink:href="38E217939472727D.png"  transform="matrix(0.4798 0 0 0.4798 234.5111 164.3648)">
	</image>
	<path d="M398.7,1033c88.7,80.5,206.5,129.6,335.8,129.6c276.1,0,499.9-223.8,499.9-499.9c0-129.3-49.1-247.1-129.6-335.8
		L398.7,1033z"/>
	<path class="st1" d="M734.5,162.8c-276.1,0-499.9,223.8-499.9,499.9c0,146.8,63.3,278.8,164.1,370.3l706.1-706.1
		C1013.4,226.1,881.3,162.8,734.5,162.8z"/>
	<g>
		<path d="M376.8,640.2h42.3l129.8-344.3h11.5l130.7,344.3h42.8v6.7h-148v-6.7h53.3l-50.5-133.7H477.3l-50.5,133.7h53.4v6.7H376.8
			V640.2z M533,359.9l-52.9,139.9h105.7L533,359.9z"/>
	</g>
	<g>
		<path class="st1" d="M771.8,860c0-24.4,4.8-47,14.4-67.8c9.6-20.8,22-38.8,37.1-54c15.1-15.3,32.1-27.2,51-36
			c18.9-8.7,37.8-13,56.8-13c20.1,0,39.8,4.3,58.8,13c19.1,8.7,36.1,20.7,51,36c14.9,15.3,26.9,33.3,35.9,54
			c9,20.8,13.5,43.4,13.5,67.8c0,21.4-4.1,42.3-12.4,62.8c-8.2,20.5-19.5,38.6-33.9,54.5c-14.3,15.9-31.2,28.7-50.6,38.5
			c-19.4,9.8-40.2,14.7-62.5,14.7c-22.9,0-44.1-4.7-63.6-14.2c-19.5-9.5-36.4-22.1-50.6-37.8c-14.2-15.7-25.3-33.9-33.2-54.5
			C775.8,903.3,771.8,882,771.8,860z M824.5,860c0,27.5,1.8,51.5,5.5,71.9c3.7,20.5,9.8,37.6,18.3,51.3c8.5,13.7,19.5,24,33,30.7
			c13.4,6.7,30.1,10.1,49.9,10.1c19.5,0,36.1-3.4,49.7-10.1c13.6-6.7,24.6-17,33.2-30.7c8.5-13.7,14.7-30.8,18.3-51.3
			c3.7-20.5,5.5-44.4,5.5-71.9c0-21.1-1.4-41.5-4.1-61.2c-2.8-19.7-8-37.2-15.8-52.7c-7.8-15.4-18.6-27.7-32.5-36.9
			s-32-13.7-54.2-13.7c-22.3,0-40.4,4.6-54.2,13.7c-13.9,9.2-24.7,21.5-32.5,36.9c-7.8,15.4-13,33-15.8,52.7
			C825.8,818.5,824.5,838.9,824.5,860z"/>
	</g>
	<g>
		<path d="M1333.9,665.7c0-14.1,2.8-27.1,8.3-39.1s12.6-22.4,21.3-31.2c8.7-8.8,18.4-15.7,29.3-20.8c10.8-5,21.7-7.5,32.5-7.5
			c11.6,0,22.8,2.5,33.7,7.5c10.9,5,20.7,11.9,29.3,20.8c8.6,8.8,15.4,19.2,20.6,31.2s7.7,25,7.7,39.1c0,12.3-2.4,24.4-7.1,36.2
			s-11.2,22.3-19.4,31.5c-8.2,9.2-17.9,16.6-29,22.2s-23.1,8.5-35.8,8.5c-13.1,0-25.3-2.7-36.5-8.2s-20.9-12.7-29-21.8
			s-14.5-19.6-19-31.5C1336.2,690.7,1333.9,678.4,1333.9,665.7z M1364.1,665.7c0,15.9,1.1,29.7,3.2,41.5
			c2.1,11.8,5.6,21.7,10.5,29.6s11.2,13.8,18.9,17.7c7.7,3.9,17.2,5.8,28.6,5.8c11.2,0,20.7-1.9,28.5-5.8s14.1-9.8,19-17.7
			s8.4-17.8,10.5-29.6c2.1-11.8,3.2-25.6,3.2-41.5c0-12.2-0.8-23.9-2.4-35.3c-1.6-11.4-4.6-21.5-9.1-30.4
			c-4.5-8.9-10.7-16-18.6-21.3c-8-5.3-18.3-7.9-31.1-7.9s-23.1,2.6-31.1,7.9s-14.2,12.4-18.6,21.3c-4.5,8.9-7.5,19-9.1,30.4
			C1364.9,641.8,1364.1,653.6,1364.1,665.7z"/>
		<path d="M1566.1,571.9h84.5v3.7h-29.1v127.7c0,10.6,0.9,19.5,2.8,26.8c1.8,7.3,4.6,13.2,8.3,17.7s8.2,7.7,13.7,9.7
			c5.4,1.9,11.6,2.9,18.6,2.9c9.8,0,18.5-1.5,26-4.4s14-8.1,19.4-15.5c1.8-2.3,3.3-4.6,4.6-6.9c1.3-2.3,2.4-5,3.4-8.1
			c1-3.1,1.7-6.8,2.2-11.1c0.5-4.3,0.8-9.7,0.8-16V575.6h-29.1v-3.7h62.2v3.7h-29.1v128.2c0,7.4-0.8,14.1-2.4,20.2
			c-1.6,6.1-4.8,12.4-9.7,18.9c-4.7,6.3-11.3,11.5-19.7,15.3c-8.4,3.9-19.5,5.8-33.3,5.8c-21,0-37.1-5.2-48.2-15.6
			c-11.1-10.4-16.7-26.3-16.7-47.8v-125h-29.1L1566.1,571.9L1566.1,571.9z"/>
		<path d="M1833.6,756.4h29.1V575.6h-15.2c-3.5,0-7.4,0.3-11.8,0.9c-4.4,0.6-8.8,2.3-13.2,5.2c-4.5,2.8-8.8,7.3-12.9,13.3
			c-4.1,6.1-7.7,14.5-10.6,25.2h-2.9v-48.4h159.6v48.4h-2.9c-3-10.7-6.5-19.2-10.6-25.2s-8.4-10.5-12.9-13.3
			c-4.5-2.8-8.9-4.5-13.2-5.2c-4.4-0.6-8.3-0.9-11.8-0.9h-15.2v180.8h29.1v3.7h-84.5V756.4z"/>
		<path d="M1999.7,756.4h29.1V575.6h-29.1v-3.7h49.9c2.1,0,4.2,0,6.3-0.1s4.2-0.2,6.3-0.4c2.1,0,4.2,0,6.3-0.1s4.2-0.1,6.3-0.1
			c10.3,0,19.4,0.6,27.3,1.7c7.9,1.2,15.2,4.5,22,9.9c6.1,4.8,10.4,10.1,13,16.1c2.5,6,3.8,11.6,3.8,16.9c0,2.6-0.5,6-1.4,10.2
			c-1,4.1-3.1,8.4-6.3,12.7s-7.9,8.3-14,11.9c-6.1,3.6-14.3,6-24.4,7.3v0.5c2.8,0.3,6.6,1,11.4,2c4.8,1,9.7,2.6,14.7,4.9
			c5,2.3,9.6,5.3,13.8,9.1s7.2,8.7,8.9,14.7c1.1,3.5,1.8,7.5,2.2,12c0.4,4.5,0.8,9.1,1.1,13.9s0.5,9.3,0.8,13.7
			c0.3,4.4,0.7,8.1,1.4,11.1c1.1,4.6,2.7,8.7,5,12.4c2.3,3.7,5.9,5.5,11,5.5c2.3,0,4.6-0.4,7.1-1.3c2.4-0.9,4.6-2.3,6.6-4.2l2.4,2.9
			c-0.9,0.7-1.9,1.5-3,2.2c-1.1,0.8-2.6,1.5-4.3,2.2c-1.8,0.7-3.9,1.3-6.4,1.7c-2.5,0.4-5.6,0.7-9.3,0.7c-7,0-12.8-0.9-17.4-2.6
			c-4.6-1.8-8.4-4.4-11.1-7.8c-2.8-3.4-4.9-7.7-6.2-12.7c-1.3-5-2.2-10.9-2.8-17.6l-1.8-24c-0.7-8.8-2.4-15.7-5.2-20.6
			s-6.1-8.5-9.8-10.8c-3.8-2.3-7.7-3.7-11.7-4.1c-4-0.4-7.5-0.7-10.5-0.7H2055v95.4h29.1v3.7h-84.5L1999.7,756.4L1999.7,756.4z
			 M2055,657.3h24.1c4.9,0,9.4-0.6,13.4-1.8c4-1.2,7.5-3.4,10.4-6.5c2.9-3.1,5.1-7.3,6.7-12.5c1.6-5.3,2.4-12,2.4-20.1
			c0-9.2-1.2-16.5-3.5-22.1s-5.4-9.7-9.2-12.5s-8-4.7-12.6-5.5c-4.6-0.9-9.2-1.3-13.8-1.3c-3.1,0-6.3,0-9.6,0.1
			c-3.2,0.1-6,0.3-8.3,0.7L2055,657.3L2055,657.3z"/>
		<path d="M2207.2,756.4h23.1l70.9-189.2h6.3l71.4,189.2h23.4v3.7h-80.8v-3.7h29.1l-27.6-73.5h-60.9l-27.6,73.5h29.1v3.7h-56.4
			L2207.2,756.4L2207.2,756.4z M2292.5,602.3l-28.9,76.9h57.7L2292.5,602.3z"/>
	</g>
	<rect x="1333.9" y="828.3" width="1065.5" height="22.6"/>
	<g>
		<path d="M1337.1,1025.3h12.9v-79.8h-12.9v-1.6h66.3v20.2h-1.3c-1-3-2.1-5.7-3.2-8c-1.2-2.3-2.6-4.2-4.2-5.8s-3.6-2.8-5.8-3.6
			c-2.2-0.8-4.9-1.2-8.1-1.2h-19.2v37.8h7.5c2.6,0,4.7-0.2,6.5-0.7c1.8-0.5,3.3-1.3,4.6-2.6c1.3-1.3,2.3-3,3.2-5.2s1.8-5.1,2.6-8.6
			h1.3v36.3h-1.3c-0.5-2.2-1.1-4.4-1.7-6.5c-0.6-2.1-1.4-4-2.4-5.6s-2.4-2.9-4.2-3.9c-1.7-1-4-1.5-6.8-1.5h-9.4v40.4h12.9v1.6h-37.3
			L1337.1,1025.3L1337.1,1025.3z"/>
		<path d="M1425.9,1025.3h12.9v-79.8h-12.9v-1.6h66.3v20.2h-1.3c-1-3-2.1-5.7-3.2-8c-1.2-2.3-2.6-4.2-4.2-5.8s-3.6-2.8-5.8-3.6
			c-2.2-0.8-4.9-1.2-8.1-1.2h-19.2v36h7.5c2.6,0,4.7-0.2,6.5-0.7c1.8-0.5,3.3-1.3,4.6-2.6c1.3-1.3,2.4-3,3.2-5.2
			c0.9-2.2,1.8-5.1,2.6-8.6h1.3v36.3h-1.3c-0.5-2.2-1.1-4.4-1.7-6.5c-0.6-2.1-1.4-4-2.4-5.6s-2.4-2.9-4.2-3.9c-1.7-1-4-1.5-6.8-1.5
			h-9.4v42.1h21.9c4.2,0,7.8-0.9,10.6-2.7c2.8-1.8,5.1-4,6.9-6.5c1.8-2.5,3.1-5.2,3.9-7.9c0.8-2.7,1.4-5,1.6-6.8h1.3v25.6h-70.7
			L1425.9,1025.3L1425.9,1025.3z"/>
		<path d="M1519.4,1025.3h12.9v-79.8h-12.9v-1.6h37.3v1.6h-12.9v79.8h12.9v1.6h-37.3V1025.3z"/>
		<path d="M1575.6,1025.3h12.9v-79.8h-12.9v-1.6h22c0.9,0,1.8,0,2.8-0.1s1.8-0.1,2.8-0.2c0.9,0,1.8,0,2.8-0.1s1.8-0.1,2.8-0.1
			c4.6,0,8.6,0.2,12.1,0.8c3.5,0.5,6.7,2,9.7,4.4c2.7,2.1,4.6,4.5,5.7,7.1c1.1,2.6,1.7,5.1,1.7,7.5c0,1.2-0.2,2.7-0.6,4.5
			c-0.4,1.8-1.3,3.7-2.8,5.6s-3.5,3.7-6.2,5.2s-6.3,2.7-10.8,3.2v0.2c1.2,0.2,2.9,0.5,5,0.9c2.1,0.4,4.3,1.2,6.5,2.2
			c2.2,1,4.2,2.3,6.1,4c1.8,1.7,3.2,3.8,3.9,6.5c0.5,1.6,0.8,3.3,1,5.3s0.3,4,0.5,6.1c0.1,2.1,0.2,4.1,0.3,6.1
			c0.1,1.9,0.3,3.6,0.6,4.9c0.5,2,1.2,3.8,2.2,5.5c1,1.6,2.6,2.5,4.9,2.5c1,0,2-0.2,3.1-0.6c1.1-0.4,2-1,2.9-1.9l1,1.3
			c-0.4,0.3-0.8,0.6-1.3,1s-1.1,0.7-1.9,1c-0.8,0.3-1.7,0.6-2.8,0.8c-1.1,0.2-2.5,0.3-4.1,0.3c-3.1,0-5.7-0.4-7.7-1.2
			c-2.1-0.8-3.7-1.9-4.9-3.4c-1.2-1.5-2.1-3.4-2.7-5.6s-1-4.8-1.2-7.8l-0.8-10.6c-0.3-3.9-1.1-6.9-2.3-9.1s-2.7-3.8-4.3-4.8
			c-1.7-1-3.4-1.6-5.2-1.8c-1.8-0.2-3.3-0.3-4.6-0.3h-11.6v42.1h12.9v1.6h-37.3L1575.6,1025.3L1575.6,1025.3z M1600,981.6h10.7
			c2.2,0,4.1-0.3,5.9-0.8c1.8-0.5,3.3-1.5,4.6-2.9c1.3-1.4,2.3-3.2,2.9-5.5c0.7-2.3,1-5.3,1-8.9c0-4-0.5-7.3-1.6-9.7
			s-2.4-4.3-4.1-5.5s-3.5-2.1-5.6-2.5s-4.1-0.6-6.1-0.6c-1.4,0-2.8,0-4.2,0.1c-1.4,0-2.7,0.1-3.7,0.3L1600,981.6L1600,981.6z"/>
		<path d="M1667.2,1025.3h10.2l31.3-83.5h2.8l31.5,83.5h10.3v1.6h-35.7v-1.6h12.9l-12.2-32.4h-26.9l-12.2,32.4h12.9v1.6h-24.9
			L1667.2,1025.3L1667.2,1025.3z M1704.9,957.3l-12.7,34h25.5L1704.9,957.3z"/>
		<path d="M1812,1025.3h12.9v-79.8H1812v-1.6h21.6c1.1,0,2.2,0,3.2-0.1s2.2-0.1,3.2-0.2c1.1,0,2.2,0,3.2-0.1s2.2-0.1,3.2-0.1
			c2.3,0,4.4,0,6.2,0.1c1.8,0.1,3.5,0.2,5.1,0.4c1.6,0.2,3.1,0.5,4.5,0.8c1.4,0.3,2.9,0.8,4.6,1.3c4.7,1.6,8.8,3.6,12.2,6.2
			c3.4,2.6,6.3,5.6,8.5,9s3.8,7.2,4.9,11.2c1,4,1.6,8.3,1.6,12.7c0,5.1-0.6,9.7-1.8,13.8c-1.2,4.1-2.9,7.7-5.1,10.8
			c-2.2,3.2-4.7,5.9-7.6,8.2c-2.9,2.3-6,4.1-9.3,5.5c-1.8,0.9-3.6,1.5-5.3,2c-1.7,0.5-3.4,0.8-5.1,1.1c-1.7,0.2-3.7,0.4-5.7,0.5
			s-4.5,0.1-7.2,0.1c-1.2,0-2.4,0-3.7-0.1c-1.3,0-2.6-0.1-3.9-0.2c-1.3-0.1-2.6-0.1-3.9-0.2c-1.3,0-2.5-0.1-3.7-0.1H1812
			L1812,1025.3L1812,1025.3z M1836.5,1025.3c1.3,0.2,2.8,0.3,4.6,0.3s3.7,0.1,5.7,0.1c2.6,0,5.2-0.1,7.8-0.4
			c2.6-0.3,5.1-0.8,7.4-1.8c2.3-0.9,4.6-2.2,6.6-3.8c2.1-1.7,3.9-3.9,5.5-6.6c2.5-4.2,4.2-8.5,5.2-12.9c1-4.4,1.4-9.2,1.4-14.4
			c0-6.1-0.6-11.7-1.7-16.7s-3.1-9.3-5.7-12.8c-2.7-3.5-6.2-6.3-10.6-8.2c-4.4-1.9-9.8-2.9-16.3-2.9c-1.9,0-3.7,0-5.3,0.1
			c-1.6,0.1-3.1,0.2-4.6,0.2V1025.3z"/>
		<path d="M1918,1025.3h12.9v-79.8H1918v-1.6h66.3v20.2h-1.3c-1-3-2.1-5.7-3.2-8c-1.2-2.3-2.6-4.2-4.2-5.8s-3.6-2.8-5.8-3.6
			c-2.2-0.8-4.9-1.2-8.1-1.2h-19.2v36h7.5c2.6,0,4.7-0.2,6.5-0.7c1.8-0.5,3.3-1.3,4.6-2.6c1.3-1.3,2.4-3,3.2-5.2
			c0.9-2.2,1.8-5.1,2.6-8.6h1.3v36.3h-1.3c-0.5-2.2-1.1-4.4-1.7-6.5c-0.6-2.1-1.4-4-2.4-5.6s-2.4-2.9-4.2-3.9c-1.7-1-4-1.5-6.8-1.5
			h-9.4v42.1h21.9c4.2,0,7.8-0.9,10.6-2.7c2.8-1.8,5.1-4,6.9-6.5c1.8-2.5,3.1-5.2,3.9-7.9c0.8-2.7,1.4-5,1.6-6.8h1.3v25.6H1918
			L1918,1025.3L1918,1025.3z"/>
		<path d="M2045,1025.3h10.2l31.3-83.5h2.8l31.5,83.5h10.3v1.6h-35.7v-1.6h12.9l-12.2-32.4h-26.9l-12.2,32.4h12.9v1.6H2045V1025.3z
			 M2082.6,957.3l-12.7,34h25.5L2082.6,957.3z"/>
		<path d="M2146,1025.3h12.9v-79.8H2146v-1.6h22c0.9,0,1.9,0,2.8-0.1s1.9-0.1,2.8-0.2c0.9,0,1.9,0,2.8-0.1s1.9-0.1,2.8-0.1
			c4.6,0,8.6,0.2,12.1,0.8c3.5,0.5,6.7,2,9.7,4.4c2.7,2.1,4.6,4.5,5.7,7.1c1.1,2.6,1.7,5.1,1.7,7.5c0,1.2-0.2,2.7-0.6,4.5
			c-0.4,1.8-1.4,3.7-2.8,5.6s-3.5,3.7-6.2,5.2s-6.3,2.7-10.8,3.2v0.2c1.2,0.2,2.9,0.5,5,0.9c2.1,0.4,4.3,1.2,6.5,2.2
			c2.2,1,4.2,2.3,6.1,4c1.9,1.7,3.2,3.8,3.9,6.5c0.5,1.6,0.8,3.3,1,5.3s0.4,4,0.5,6.1c0.1,2.1,0.2,4.1,0.4,6.1
			c0.1,1.9,0.3,3.6,0.6,4.9c0.5,2,1.2,3.8,2.2,5.5c1,1.6,2.6,2.5,4.9,2.5c1,0,2-0.2,3.1-0.6c1.1-0.4,2-1,2.9-1.9l1,1.3
			c-0.4,0.3-0.8,0.6-1.3,1s-1.1,0.7-1.9,1c-0.8,0.3-1.7,0.6-2.8,0.8c-1.1,0.2-2.5,0.3-4.1,0.3c-3.1,0-5.7-0.4-7.7-1.2
			c-2.1-0.8-3.7-1.9-4.9-3.4c-1.2-1.5-2.1-3.4-2.7-5.6s-1-4.8-1.2-7.8l-0.8-10.6c-0.3-3.9-1.1-6.9-2.3-9.1s-2.7-3.8-4.3-4.8
			c-1.7-1-3.4-1.6-5.2-1.8c-1.8-0.2-3.3-0.3-4.6-0.3h-11.6v42.1h12.9v1.6H2146L2146,1025.3L2146,1025.3z M2170.5,981.6h10.7
			c2.2,0,4.1-0.3,5.9-0.8c1.8-0.5,3.3-1.5,4.6-2.9c1.3-1.4,2.3-3.2,2.9-5.5c0.7-2.3,1-5.3,1-8.9c0-4-0.5-7.3-1.6-9.7
			s-2.4-4.3-4.1-5.5c-1.7-1.2-3.5-2.1-5.6-2.5s-4.1-0.6-6.1-0.6c-1.4,0-2.8,0-4.2,0.1s-2.6,0.1-3.6,0.3L2170.5,981.6L2170.5,981.6z"
			/>
		<path d="M2255.3,1025.3h12.9v-79.8h-6.7c-1.6,0-3.3,0.1-5.2,0.4c-1.9,0.3-3.9,1-5.9,2.3c-2,1.2-3.9,3.2-5.7,5.9
			c-1.8,2.7-3.4,6.4-4.7,11.1h-1.3v-21.3h70.4v21.3h-1.3c-1.3-4.7-2.9-8.5-4.7-11.1c-1.8-2.7-3.7-4.7-5.7-5.9s-3.9-2-5.9-2.3
			c-1.9-0.3-3.7-0.4-5.2-0.4h-6.7v79.8h12.9v1.6h-37.3L2255.3,1025.3L2255.3,1025.3z"/>
		<path d="M2328.6,1025.3h12.9v-79.8h-12.9v-1.6h66.3v20.2h-1.3c-1-3-2.1-5.7-3.2-8c-1.2-2.3-2.6-4.2-4.2-5.8
			c-1.6-1.6-3.6-2.8-5.8-3.6c-2.2-0.8-4.9-1.2-8.1-1.2H2353v36h7.5c2.6,0,4.7-0.2,6.5-0.7c1.8-0.5,3.3-1.3,4.6-2.6
			c1.3-1.3,2.4-3,3.2-5.2c0.9-2.2,1.8-5.1,2.6-8.6h1.3v36.3h-1.3c-0.5-2.2-1.1-4.4-1.7-6.5c-0.6-2.1-1.4-4-2.4-5.6s-2.4-2.9-4.2-3.9
			c-1.7-1-4-1.5-6.8-1.5h-9.4v42.1h21.9c4.2,0,7.8-0.9,10.6-2.7c2.8-1.8,5.1-4,6.9-6.5c1.8-2.5,3.1-5.2,3.9-7.9
			c0.9-2.7,1.4-5,1.6-6.8h1.3v25.6h-70.7L2328.6,1025.3L2328.6,1025.3z"/>
	</g>
	<path class="st2" d="M1985.8,1008.2c-0.8,2.7-2.2,5.3-3.9,7.9c-1.8,2.5-4.1,4.7-6.9,6.5c-2.8,1.8-6.3,2.7-10.6,2.7h-21.9v-42.1h9.4
		c2.8,0,5,0.5,6.8,1.5c1.7,1,3.1,2.3,4.2,3.9c1,1.6,1.8,3.5,2.4,5.6c0.6,2.1,1.1,4.3,1.7,6.5h1.3v-36.3h-1.3
		c-0.8,3.5-1.7,6.4-2.6,8.6c-0.9,2.2-2,4-3.2,5.2s-2.8,2.2-4.6,2.6c-1.8,0.5-3.9,0.7-6.5,0.7h-7.5v-36h19.2c3.2,0,5.9,0.4,8.1,1.2
		c2.2,0.8,4.2,2,5.8,3.6s3,3.5,4.2,5.8c1.2,2.3,2.2,5,3.2,8h1.3v-20.2H1918v1.6h12.9v79.8H1918v1.6h70.7v-25.5h-1.3
		C1987.2,1003.2,1986.7,1005.5,1985.8,1008.2z"/>
	<path class="st2" d="M1651.7,1025.3c-1.1,0.4-2.1,0.6-3.1,0.6c-2.2,0-3.9-0.8-4.9-2.5c-1-1.6-1.7-3.5-2.2-5.5
		c-0.3-1.3-0.5-3-0.6-4.9s-0.2-4-0.3-6.1c-0.1-2.1-0.3-4.1-0.5-6.1s-0.5-3.8-1-5.3c-0.8-2.6-2.1-4.8-3.9-6.5s-3.9-3-6.1-4
		c-2.2-1-4.4-1.7-6.5-2.2c-2.1-0.4-3.8-0.7-5-0.9v-0.2c4.5-0.5,8.1-1.6,10.8-3.2c2.7-1.6,4.8-3.3,6.2-5.2c1.4-1.9,2.3-3.8,2.8-5.6
		c0.4-1.8,0.6-3.3,0.6-4.5c0-2.3-0.6-4.8-1.7-7.5c-1.1-2.6-3-5-5.7-7.1c-3-2.4-6.3-3.9-9.7-4.4c-3.5-0.5-7.5-0.8-12.1-0.8
		c-0.9,0-1.8,0-2.8,0.1s-1.8,0.1-2.8,0.1c-0.9,0.1-1.8,0.1-2.8,0.2s-1.8,0.1-2.8,0.1h-22v1.6h12.9v79.8h-12.9v1.6h37.3v-1.6H1600
		v-42.1h11.6c1.3,0,2.9,0.1,4.6,0.3c1.8,0.2,3.5,0.8,5.2,1.8c1.7,1,3.1,2.6,4.3,4.8c1.2,2.2,2,5.2,2.3,9.1l0.8,10.6
		c0.2,3,0.6,5.5,1.2,7.8s1.5,4.1,2.7,5.6c1.2,1.5,2.9,2.7,4.9,3.4c2.1,0.8,4.6,1.2,7.7,1.2c1.6,0,3-0.1,4.1-0.3
		c1.1-0.2,2.1-0.4,2.8-0.8s1.4-0.6,1.9-1s0.9-0.7,1.3-1l-1-1.3C1653.8,1024.3,1652.8,1024.9,1651.7,1025.3z M1610.7,981.6H1600v-36
		c1-0.2,2.2-0.2,3.7-0.3s2.8-0.1,4.2-0.1c2,0,4,0.2,6.1,0.6c2.1,0.4,3.9,1.2,5.6,2.5c1.7,1.2,3,3.1,4.1,5.5s1.6,5.7,1.6,9.7
		c0,3.6-0.3,6.5-1,8.9c-0.7,2.3-1.7,4.2-2.9,5.5c-1.3,1.4-2.8,2.3-4.6,2.9C1614.8,981.3,1612.9,981.6,1610.7,981.6z"/>
	<path class="st2" d="M1493.7,1008.2c-0.8,2.7-2.2,5.3-3.9,7.9c-1.8,2.5-4.1,4.7-6.9,6.5c-2.8,1.8-6.3,2.7-10.6,2.7h-21.9v-42.1h9.4
		c2.8,0,5,0.5,6.8,1.5c1.7,1,3.1,2.3,4.2,3.9c1,1.6,1.8,3.5,2.4,5.6c0.6,2.1,1.1,4.3,1.7,6.5h1.3v-36.3h-1.3
		c-0.8,3.5-1.7,6.4-2.6,8.6c-0.9,2.2-2,4-3.2,5.2s-2.8,2.2-4.6,2.6c-1.8,0.5-3.9,0.7-6.5,0.7h-7.5v-36h19.2c3.2,0,5.9,0.4,8.1,1.2
		c2.2,0.8,4.2,2,5.8,3.6s3,3.5,4.2,5.8c1.2,2.3,2.2,5,3.2,8h1.3v-20.2h-66.3v1.6h12.9v79.8h-12.9v1.6h70.7v-25.5h-1.3
		C1495.1,1003.2,1494.6,1005.5,1493.7,1008.2z"/>
	<path class="st2" d="M2089.2,941.8h-2.8l-31.3,83.5H2045v1.6h24.9v-1.6H2057l12.2-32.4h26.9l12.2,32.4h-12.9v1.6h35.7v-1.6h-10.3
		L2089.2,941.8z M2069.9,991.3l12.7-34l12.7,34H2069.9z"/>
	<path class="st2" d="M1711.5,941.8h-2.8l-31.3,83.5h-10.2v1.6h24.9v-1.6h-12.9l12.2-32.4h26.9l12.2,32.4h-12.9v1.6h35.7v-1.6H1743
		L1711.5,941.8z M1692.1,991.3l12.7-34l12.7,34H1692.1z"/>
	<polygon class="st2" points="1519.4,945.5 1532.3,945.5 1532.3,1025.3 1519.4,1025.3 1519.4,1027 1556.7,1027 1556.7,1025.3 
		1543.9,1025.3 1543.9,945.5 1556.7,945.5 1556.7,943.9 1519.4,943.9 	"/>
	<path class="st2" d="M1887.6,961.5c-2.2-3.4-5-6.4-8.5-9s-7.5-4.7-12.2-6.2c-1.6-0.5-3.2-1-4.6-1.3c-1.4-0.3-2.9-0.6-4.5-0.8
		c-1.6-0.2-3.3-0.3-5.1-0.4c-1.8-0.1-3.9-0.1-6.2-0.1c-1.1,0-2.2,0-3.2,0.1s-2.2,0.1-3.2,0.1c-1.1,0.1-2.2,0.1-3.2,0.2
		s-2.2,0.1-3.2,0.1H1812v1.6h12.9v79.8H1812v1.6h19.7c1.2,0,2.4,0,3.7,0.1s2.6,0.1,3.9,0.2c1.3,0.1,2.6,0.1,3.9,0.2
		c1.3,0,2.6,0.1,3.7,0.1c2.7,0,5.1,0,7.2-0.1c2.1-0.1,4-0.2,5.7-0.5c1.7-0.2,3.4-0.6,5.1-1.1c1.7-0.5,3.4-1.1,5.3-2
		c3.3-1.4,6.4-3.2,9.3-5.5c2.9-2.3,5.4-5,7.6-8.2c2.2-3.2,3.9-6.8,5.1-10.8c1.2-4.1,1.8-8.7,1.8-13.8c0-4.4-0.5-8.7-1.6-12.7
		C1891.4,968.7,1889.8,964.9,1887.6,961.5z M1879.3,1000.3c-1,4.4-2.7,8.7-5.2,12.9c-1.6,2.7-3.5,4.9-5.5,6.6
		c-2.1,1.7-4.2,3-6.6,3.8c-2.4,0.9-4.8,1.5-7.4,1.8c-2.6,0.3-5.2,0.4-7.8,0.4c-2.1,0-4,0-5.7-0.1c-1.7-0.1-3.3-0.2-4.6-0.3v-79.8
		c1.5-0.1,3-0.2,4.6-0.2c1.6-0.1,3.3-0.1,5.3-0.1c6.5,0,11.9,1,16.3,2.9c4.4,2,7.9,4.7,10.6,8.2c2.7,3.5,4.6,7.8,5.7,12.8
		c1.2,5,1.7,10.6,1.7,16.7C1880.7,991.1,1880.2,995.9,1879.3,1000.3z"/>
	<rect x="1333.9" y="828.3" class="st2" width="1065.5" height="22.6"/>
	<path class="st2" d="M1337.1,945.5h12.9v79.8h-12.9v1.6h37.3v-1.6h-12.9V985h9.4c2.8,0,5,0.5,6.8,1.5c1.7,1,3.1,2.3,4.2,3.9
		c1,1.6,1.8,3.5,2.4,5.6c0.6,2.1,1.1,4.3,1.7,6.5h1.3v-36.3h-1.3c-0.8,3.5-1.7,6.4-2.6,8.6c-0.9,2.2-2,4-3.2,5.2s-2.8,2.2-4.6,2.6
		c-1.8,0.5-3.9,0.7-6.5,0.7h-7.5v-37.8h19.2c3.2,0,5.9,0.4,8.1,1.2c2.2,0.8,4.2,2,5.8,3.6s3,3.5,4.2,5.8c1.2,2.3,2.2,5,3.2,8h1.3
		v-20.2h-66.3L1337.1,945.5L1337.1,945.5z"/>
	<path class="st2" d="M2238.7,965.2h1.3c1.3-4.7,2.9-8.5,4.7-11.1s3.7-4.7,5.7-5.9s3.9-2,5.9-2.3c1.9-0.3,3.7-0.4,5.2-0.4h6.7v79.8
		h-12.9v1.6h37.3v-1.6h-12.9v-79.8h6.7c1.5,0,3.3,0.1,5.2,0.4c1.9,0.3,3.9,1,5.9,2.3c2,1.2,3.9,3.2,5.7,5.9
		c1.8,2.7,3.4,6.4,4.7,11.1h1.3v-21.3h-70.4L2238.7,965.2L2238.7,965.2z"/>
	<path class="st2" d="M2396.4,1008.2c-0.9,2.7-2.2,5.3-3.9,7.9s-4.1,4.7-6.9,6.5c-2.8,1.8-6.4,2.7-10.6,2.7H2353v-42.1h9.4
		c2.8,0,5,0.5,6.8,1.5c1.7,1,3.1,2.3,4.2,3.9c1,1.6,1.9,3.5,2.4,5.6c0.6,2.1,1.1,4.3,1.7,6.5h1.3v-36.3h-1.3
		c-0.9,3.5-1.7,6.4-2.6,8.6c-0.9,2.2-2,4-3.2,5.2s-2.8,2.2-4.6,2.6c-1.8,0.5-3.9,0.7-6.5,0.7h-7.5v-36h19.2c3.2,0,5.9,0.4,8.1,1.2
		c2.2,0.8,4.2,2,5.8,3.6s3,3.5,4.2,5.8c1.2,2.3,2.2,5,3.2,8h1.3v-20.2h-66.3v1.6h12.9v79.8h-12.9v1.6h70.7v-25.5h-1.3
		C2397.8,1003.2,2397.2,1005.5,2396.4,1008.2z"/>
	<path class="st2" d="M2222.1,1025.3c-1.1,0.4-2.1,0.6-3.1,0.6c-2.2,0-3.9-0.8-4.9-2.5c-1-1.6-1.7-3.5-2.2-5.5
		c-0.3-1.3-0.5-3-0.6-4.9c-0.1-1.9-0.2-4-0.4-6.1c-0.1-2.1-0.3-4.1-0.5-6.1s-0.5-3.8-1-5.3c-0.8-2.6-2.1-4.8-3.9-6.5
		c-1.9-1.7-3.9-3-6.1-4c-2.2-1-4.4-1.7-6.5-2.2c-2.1-0.4-3.8-0.7-5-0.9v-0.2c4.5-0.5,8.1-1.6,10.8-3.2c2.7-1.6,4.8-3.3,6.2-5.2
		s2.4-3.8,2.8-5.6c0.4-1.8,0.6-3.3,0.6-4.5c0-2.3-0.6-4.8-1.7-7.5c-1.1-2.6-3-5-5.7-7.1c-3-2.4-6.3-3.9-9.7-4.4
		c-3.5-0.5-7.5-0.8-12.1-0.8c-0.9,0-1.9,0-2.8,0.1s-1.9,0.1-2.8,0.1c-0.9,0.1-1.9,0.1-2.8,0.2s-1.9,0.1-2.8,0.1h-22v1.6h12.9v79.8
		H2146v1.6h37.3v-1.6h-12.9v-42.1h11.6c1.3,0,2.9,0.1,4.6,0.3c1.8,0.2,3.5,0.8,5.2,1.8c1.7,1,3.1,2.6,4.3,4.8c1.2,2.2,2,5.2,2.3,9.1
		l0.8,10.6c0.2,3,0.6,5.5,1.2,7.8s1.5,4.1,2.7,5.6c1.2,1.5,2.9,2.7,4.9,3.4c2.1,0.8,4.6,1.2,7.7,1.2c1.6,0,3-0.1,4.1-0.3
		c1.1-0.2,2.1-0.4,2.8-0.8s1.4-0.6,1.9-1s0.9-0.7,1.3-1l-1-1.3C2224.2,1024.3,2223.2,1024.9,2222.1,1025.3z M2181.1,981.6h-10.7v-36
		c1-0.2,2.2-0.2,3.6-0.3s2.8-0.1,4.2-0.1c2,0,4,0.2,6.1,0.6c2.1,0.4,3.9,1.2,5.6,2.5c1.7,1.2,3,3.1,4.1,5.5s1.6,5.7,1.6,9.7
		c0,3.6-0.4,6.5-1,8.9c-0.7,2.3-1.7,4.2-2.9,5.5s-2.8,2.3-4.6,2.9C2185.2,981.3,2183.3,981.6,2181.1,981.6z"/>
	<polygon class="st0" points="2069.9,991.3 2095.4,991.3 2082.6,957.3 	"/>
	<polygon class="st0" points="1692.1,991.3 1717.6,991.3 1704.9,957.3 	"/>
	<path class="st0" d="M1873.3,956.3c-2.7-3.5-6.2-6.3-10.6-8.2c-4.4-1.9-9.8-2.9-16.3-2.9c-1.9,0-3.7,0-5.3,0.1
		c-1.6,0.1-3.1,0.2-4.6,0.2v79.8c1.3,0.2,2.8,0.3,4.6,0.3s3.7,0.1,5.7,0.1c2.6,0,5.2-0.1,7.8-0.4c2.6-0.3,5.1-0.8,7.4-1.8
		c2.3-0.9,4.6-2.2,6.6-3.8c2.1-1.7,3.9-3.9,5.5-6.6c2.5-4.2,4.2-8.5,5.2-12.9c1-4.4,1.4-9.2,1.4-14.4c0-6.1-0.6-11.7-1.7-16.7
		C1877.8,964.1,1875.9,959.9,1873.3,956.3z"/>
	<path class="st0" d="M1624.1,972.4c0.7-2.3,1-5.3,1-8.9c0-4-0.5-7.3-1.6-9.7s-2.4-4.3-4.1-5.5s-3.5-2.1-5.6-2.5s-4.1-0.6-6.1-0.6
		c-1.4,0-2.8,0-4.2,0.1c-1.4,0-2.7,0.1-3.7,0.3v36h10.7c2.2,0,4.1-0.3,5.9-0.8c1.8-0.5,3.3-1.5,4.6-2.9
		C1622.5,976.5,1623.4,974.7,1624.1,972.4z"/>
	<path class="st0" d="M2194.6,972.4c0.7-2.3,1-5.3,1-8.9c0-4-0.5-7.3-1.6-9.7s-2.4-4.3-4.1-5.5c-1.7-1.2-3.5-2.1-5.6-2.5
		s-4.1-0.6-6.1-0.6c-1.4,0-2.8,0-4.2,0.1s-2.6,0.1-3.6,0.3v36h10.7c2.2,0,4.1-0.3,5.9-0.8c1.8-0.5,3.3-1.5,4.6-2.9
		C2192.9,976.5,2193.9,974.7,2194.6,972.4z"/>
</g>
<g id="A_00000026128125214815326610000016753398005174979002_">
	<g>
		<path d="M1347.8,486.8h23.1l70.8-189.2h6.3l71.4,189.2h23.4v3.7H1462v-3.7h29.1l-27.6-73.5h-60.9l-27.6,73.5h29.1v3.7h-56.4
			L1347.8,486.8L1347.8,486.8z M1433.1,332.7l-28.9,76.9h57.7L1433.1,332.7z"/>
	</g>
</g>
<g id="Layer_12_copy_xA0_Image_00000031918915407306248190000012934726817951700139_">
</g>
<g id="Layer_18_xA0_Image_00000105402173205217652740000018315346846787053750_">
</g>
<g id="A">
</g>
<g id="o">
</g>
</svg>
