<?xml version="1.0" encoding="UTF-8"?>
<svg id="Camada_4_Image" data-name="Camada 4 Image" xmlns="http://www.w3.org/2000/svg" viewBox="0 0 681.08 179.33">
  <path d="m657.22,0c.54.41,1.18.8,1.88.85.52.04,1.55-.48,1.99.02,1.01,1.14-1.21,3.07-1.88,3.77-1,1.04-.82,2.74-1.41,4.1-.24.56-.88,1.35-.59,1.92.12.23.51.1.7.27.25.24.37.52.59.8-1.45.68-1.96.42-2.54,2.12-.57,1.69-1.03,3.42-1.61,5.11-1.23,3.58-2.56,7.14-3.92,10.68-2.55,6.65-5.81,12.96-9.34,19.16-3.7,6.52-7.78,12.72-12.23,18.75-2.19,2.97-4.37,5.95-6.63,8.87-1.12,1.44-6.14,7.26-6.92,8.94.47-.19.81-.25,1.31-.32-.37,1.19-1.43,1.98-2.23,2.94-.84,1-1.62,2.06-2.24,3.21-1.44,2.68-2.28,5.8-3.41,8.63-1.03,2.58-2.36,5.02-3.32,7.64-.98,2.66-2.61,5.77-2.85,8.59,2.39-2.53,4.14-5.98,6.08-8.86,2.09-3.1,4.18-6.2,6.42-9.2,3.46-4.62,8.33-12.05,15.1-9.63,2.13.76,4.37,2.79,4.77,5.07.14.78.12,1.27.48,2.03.31.65.73,1.22.97,1.9.52,1.45,1.03,21.08.95,22.7-.17,3.55-.5,7.51,1.05,10.83.6,1.27,1.66,2.57,3.06,2.98,1.67.49,2.74-.65,4.23-1.08-.53,1.32-1.13,2.49-2.18,3.49-.58.55-2.76,2.81-3.35,3.4-1.76,1.77-5.15,1.11-6.52-.73-4.27-5.71-4.33-14.08-4.58-20.87-.15-4.03-.08-8.08-.61-12.08-.32-2.36-.85-7.69-3.62-8.65-2.51-.87-5.68,3.74-7.05,5.27-2.46,2.75-9.59,13.62-10.13,14.52-.32.52-3.89,5.66-4.8,6.88-2.19,2.96-4.35,5.9-6.12,9.16-1.81,3.33-2.8,7.02-4.04,10.59-2.51,7.24-4.65,14.47-6.63,21.87-.5,1.86-1,3.72-1.47,5.59-.49,1.96-.62,4.22-1.52,6.06-.46.94-1.29,2.59-2.45,1.88-.68-.41-1.27-1.6-1.75-2.22-.64-.83-1.31-1.65-1.92-2.51-1.04-1.48-2.35-3.19-1.88-5.09.53-2.13,1.79-4.26,2.66-6.27,1.66-3.83,3.49-7.63,4.95-11.53.62-1.65,1-3.16,1.36-4.85.4-1.89,1.55-3.82,2.22-5.64.78-2.14,1.53-4.3,2.28-6.45.64-1.84,3.01-8.08,3.12-8.45.46-1.52.55-3.1,1.23-4.56.69-1.47,4.68-12.93,4.73-13.43.07-.65,1.9-4.2,1.9-4.2-.89-.39-5.26,4.18-5.92,4.73-2.98,2.51-6.24,4.82-9.55,6.87-2.6,1.62-5.9,3.5-8.99,3.89-3.33.43-7.16,1.58-10.49.78-3.13-.75-5.64-3.24-7.47-5.78-2.13-2.96-4.24-5.94-5.63-9.33-.33-.82-1.06-3.36-1.25-4.6,0,0-4.61,3.2-5.62,3.79-1.4.8-7.5,3.49-9.9,3.85s-5.27.88-5.05,2.9c.19,1.79,1.16,3.24,1.05,5.14-.05.84-.36,1.61-.39,2.44-.03.98.2,1.69-.07,2.69-.75,2.78-3.21,5.58-5.48,7.25-2.32,1.71-5.38,3.64-8.18,4.39-8.4,2.25-7.21-13.11-6.19-17.49.98-4.2,2.79-8.25,4.28-12.29.79-2.15,1.58-4.3,2.32-6.47.6-1.77,1.75-3.82,1.28-5.68-1.69.61-8.79,5.13-10.84,6.29-3.45,1.95-6.91,3.8-10.39,5.68-1.65.89-5.03,2.84-6.57,3.91,0,0-2.06,6.65-2.5,8.42-.48,1.93-3.45,13.6-4.47,17.49-.45,1.72-1.02,3.44-1.76,5.06-.77,1.69-2.03,3.05-2.84,4.7-.75,1.54-5.8,13.61-6.93,15.07-.46.59-1.03,1.3-1.24,2.03-.26.91-.06,1.77-.55,2.64-.79,1.42-4.82,5.37-6.46,4.06-1.35-1.08-.41-3.74-.03-5.02.66-2.23,1.28-4.48,1.93-6.71,2.32-7.89,5.09-15.65,7.52-23.5,1.28-4.12,2.49-8.25,3.55-12.44.26-1.02,1.24-5.31,1.87-6.69,0,0-7.36,3.31-9.21,3.88-1.79.55-3.95,1.34-5.81,1.52-1.18.12-3.1-.04-2.47-1.47.27-.62.9-1.01,1.29-1.53.62-.84.26-1.06.36-1.95.17-1.59,2.3-2.3,3.51-2.99,1.84-1.05,7.12-2.19,9.03-2.8,2.09-.66,5.35-2.27,5.35-2.27,1.41-4.49,3.39-11.53,4.64-16.07,1.21-4.4,3.14-9.17,3.51-13.72-4.49,5.47-14.13,13.82-17.03,16.62-5.71,5.51-11.63,10.71-17.75,15.76-6.11,5.04-29.52,23.38-29.52,23.38.37,2.04,1.39,5.64,1.77,7.69.68,3.73,1.21,7.53.99,11.33-.19,3.3-1.38,6.91-2.76,9.91-.76,1.64-4.98,7.4-6.36,8.54-2.83,2.33-5.68,4.57-8.8,6.5-2.96,1.84-6.22,3.65-9.64,4.48-1.69.41-8.66.56-10.47.3-1.86-.26-8.96-1.38-10.27-2.22-1.24-.8-1.49-1.89-2.17-3.08-1-1.73-.41-7.25.19-8.84.65-1.71,1.48-3.38,2.36-4.98,1.69-3.08,4.4-5.83,7.06-8.1,2.85-2.43,21.48-15.53,23.02-16.67,1.41-1.04,4.39-2.78,5.42-4.2,0,0-.66-2.14-1.11-3.45-.67-1.95-1.34-3.9-2.01-5.85-2.6-7.5-5.07-14.98-7.19-22.63-4.31-15.54-5.87-31.46-1.78-47.24,1.71-6.62,5.37-13.42,10.42-18.08,5.24-4.84,12.2-7.42,19.18-8.42,1.84-.26,7.26-.82,8.12-.87,1.07-.07,2.18.3,3.22.21,1.24-.11,1.91-1.23,3.27-1.36,1.72-.17,3.49.09,5.2.24,3.43.31,5.78.72,8.41,3.12,1.5,1.37,1.25,2.28,1.08,4.24-.18,1.92.26,3.68.21,5.57-.08,2.94-2.02,5.81-3.6,8.18-1.88,2.81-4.7,4.74-7.28,6.85-2.57,2.1-10.56,8.24-11.9,9.09-1.48.95-3.11,1.65-4.58,2.69-2.8,1.99-5.58,4.81-8.74,6.16-.23-1.42.15-1.83,1.08-2.83.86-.93,6.58-6.6,8.56-8.52,1.6-1.56,7.5-8.82,8.62-11.03.36-.71,1.43-2.02,1.21-2.9-.22-.84-1.64-1.59-2.25-2.08-.84-.67-1.92-1.92-2.9-2.29-.96-.36-7.19,1.71-9.12,2.8-1.03.58-2.03,1.22-3.04,1.83-.57.34-1.33.64-1.84,1.06-.33.27-.54.77-.87,1-.62.43-1.46.43-2.13.91-.66.47-4.25,5.58-5.37,7.6-2.44,4.38-3.61,8.46-4.18,13.41-.29,2.52-.9,5.02-.81,7.56.09,2.49,0,4.88.26,7.38.53,5.16,1.64,10.45,2.6,15.57.91,4.89,2.48,9.7,3.83,14.49.69,2.44,2.89,10.85,3.51,11.46,0,0,17.9-14.55,25.79-21.14,8.17-6.83,16.04-14.04,23.71-21.41,3.8-3.65,17.8-18.47,20.7-22.37,1.5-2.02,5.09-11.67,5.94-14.2.83-2.46,2.03-4.91,2.51-7.48.27-1.4.22-2.75-.23-4.11-.49-1.51-.62-1.68.44-2.97.79-.97,1.07-1.86,1.58-2.96.34-.74.45-1.06,1.26-1.29,1.09-.31,2.15.37,3.12-.41.72-.58.68-1.62,1.45-2.14.72-.48,2.1-.3,2.96-.48,1.13-.24,2.64-1.05,3.81-.91,1.28.15,2.11.81,3.54.75,1.18-.05,2.16-.43,3.27-.57-.2,3.15-4.21,4.48-5.68,6.85-.7,1.13-.91,2.42-1.48,3.59-.8,1.64-9.31,23.4-9.68,24.25-1.45,3.34-3.21,6.85-4.33,10.3-.53,1.65-2.55,8.57-3.32,10.34-.72,1.65-5.93,19.45-6.22,21.39,0,0,9.7-5.42,11.51-6.34,3.36-1.71,12.91-7.24,14.43-8.1,1.49-.84,2.77-2.03,4.33-2.71,1.46-.64,3.09-1.5,4.6-.92.81.31,1.56.76,2.36,1.08.78.31,1.74.37,2.48.7,2.73,1.24-1.01,7.24-1.45,9.26-.34,1.56.85,2.55.14,4.11-.44.98-1.72,2.56-.53,3.52.86.69,3.2.16,4.17.09,1.97-.15,3.95-.41,5.86-.96,1.72-.5,8.59-3.78,9.54-4.83,0,0-.15-6.11,1.4-11.98,1.02-4.1,2.08-10.3,5.64-17.92.86-1.73,5.22-9.01,6.41-10.95,1.05-1.71,2.46-3.33,2.93-5.3-1.39.66-1.92,2.02-3.19,2.73.88-2.33,3.26-4.23,4.59-6.34.55-.87.73-1.81,1.19-2.71.53-1.05,1.55-1.86,2.41-2.61,2.72-2.39,7.95-6.4,11.61-3.97.95.63,1.89,1.43,2.96,1.85,1.03.4,1.83.15,2.9.11,1.94-.07,5.2,6.34,4.89,8.22-.19,1.16.06,2.34-.21,3.55-.3,1.3-.76,2.59-1.31,3.8-.32.72-1.23,3.44-2.99,7.15-.84,1.77-5.69,9.75-6.96,11.48-7.03,9.59-13.66,15.23-17.04,18.17-1.92,1.67-8.83,6.97-9.73,7.72,0,0-.16.92-.09,2.5.1,2.28-.15,5.28.83,7.36.86,1.83,2.95,3.76,4.73,4.64,4.12,2.04,9.42,1.04,13.59-.42,9.86-3.43,17.86-10.07,25.87-16.49.94-.76,6.33-7.48,7.15-9.19.46-.97,11.79-27.82,14.24-32.54.69-1.32,1.38-2.64,2.07-3.97.56-1.07,1.24-4.73,1.49-5.62.23-.85,1.44-1.47,1.78-2.33.48-1.21,13.18-24.06,16.71-28.85,1.76-2.39,3.61-4.72,5.54-6.97,1.89-2.19,4.33-3.76,6.17-5.96.72,0,1.44,0,2.16,0Zm-264.32,168.28c5.64,0,7.63-1.61,11.14-3.77,2.84-1.75,5.63-4.45,7.65-7.1,8.79-9.19,4.95-20.7,4.46-21.49,0,0-21.21,14.68-23.81,16.86-2.37,1.98-5.01,4.51-6.14,7.44-.69,1.77-1.69,5.05.58,5.95.57.23,1.33.2,1.84.54.45.3.47.82.85,1.11.68.51,2.62.39,3.44.48Zm194.14-115.84c-.67-1.69-2.04-4.17-4.03-4.53-2.18-.4-3.8,2.11-5.48,3.13-4.31,2.6-6.68,7.09-9.57,11.05-3.09,4.23-4.95,8.77-7.12,13.5-2.08,4.53-4.69,10.05-5.39,15.6,1.92-.76,9.24-6.51,10.82-7.91,2.08-1.83,15.2-18.21,16.28-20.33,1.99-3.91,4.49-8.73,4.49-10.49Zm64.8-34.67c-.1-.98-1.29-1.14-2.18-.85-1.47.47-.52,1.61-1.05,2.41-.22.33-1.01.73-1.3.99-.62.56-1.16,1.2-1.66,1.86-.64.85-5,7.41-7.98,12.82-1.47,2.66-4.3,9.36-5.29,11.24-.85,1.63-4.69,9.15-6.08,11.89-1.46,2.87-2.68,6-3.89,8.97-.8,1.96-4.15,8.17-4.37,9.57,2.17-.5,4.23-4.1,5.58-5.84,1.77-2.28,3.49-4.6,5.16-6.95,3.3-4.65,6.06-9.58,8.97-14.48,2.87-4.83,5.44-9.84,7.76-14.95,2.47-5.44,4.3-11.09,6.32-16.7Zm-131.14,93.69c-3.72,7.46-.99,11.99.36,13.08.59-.94.19-12.28-.36-13.08Z"/>
  <path d="m75.69,165.82c-3.83-.77-7.82-1.7-10.43-4.92-1.23-1.51-1.83-3.33-2.55-5.11-.85-2.09-2.87-10.25-3.26-12.23-.31-1.57-.64-4.65-1.42-5.09-1.38-.9-2.88-.57-3.97.48-1.77,1.69-3.25,3.78-4.85,5.63-2.81,3.27-5.93,6.36-8.54,9.8-2.25,2.96-10.12,11.15-11.72,12.2-1.58,1.04-7.95,2.51-15.83-1.53-3.79-1.94-6.23-4.1-8.98-7.13-2.71-2.98-3.82-7.33-4.13-11.29-.34-4.44,5.97-19.66,7.26-23.62,1.28-3.91,8.45-19.3,10.55-23.32,3.91-7.48,8.15-14.68,12.51-21.89,4.52-7.49,9.7-14.47,14.93-21.46,2.79-3.73,5.58-7.46,8.46-11.12,2.9-3.69,6.26-6.94,9.23-10.56,2.73-3.33,5.04-6.75,8.24-9.69,3.33-3.06,6.69-6.16,10.26-8.94,1.51-1.18,3.28-2.43,5.09-3.11,1.93-.72,3.26.13,4.69,1.41,1.44,1.29,4.63,6.09,5.1,6.93.53.95,1.56,2.19,1.83,3.24.45,1.75-2.16,1.06-3.46,1.43-1.01.29-1.94.77-2.88,1.22-.98.48-1.98.54-2.97.95-1.25.52-2.8,1.89-3.09,3.27-.42,1.98,1.48,3.59,2.71,4.86,1.38,1.42,2.93,2.17,4.67,3.05,1.83.93,3.1,2.24,4.69,3.48.93.72,3.06.84,3.18,2.24.06.76-.61,1.3-.85,1.95-.31.85-.08,1.77-.35,2.62-.54,1.69-2.87,8.76-3.54,10.61-.73,2.01-13.02,31.61-13.36,32.7-1.23,3.87-2.71,7.66-3.89,11.56-1.22,4.03-3.67,7.62-4.93,11.66-2.76,8.82-5.47,18.12-5.65,27.42-.08,4.26,0,8.88,1.74,12.85.62,1.42,1.35,2.95,3.02,3.26,2.08.39,4.73-.54,6.53-1.48,1.92-1,7.95-4.33,8.66-5.04.19-.19.57-1.07.71-1.14,1.25-.57,1.69,2.04,1.41,2.77-.33.85-1.41,1.69-2.04,2.36-.87.93-5.37,6.35-7.17,7.4-1.66.97-3.7,1.11-5.57,1.11-.01.07-.02.13-.03.2Zm9.16-123.46c-.3-2.14-.37-4.36-2.79-5.09-2.36-.71-3.87.77-5.16,2.57-1.44,2-2.72,4.05-4.26,5.99-1.43,1.8-10.47,13.58-13.52,17.68-3,4.04-10.87,15.29-11.85,16.9-1.03,1.69-11.89,19.3-12.72,21.51-.76,2.02-6.37,14.17-8.22,18.36-1.87,4.22-3.65,8.48-5.49,12.71-.98,2.25-4.27,10.67-4.65,12.71-.32,1.68-.97,5.15,1.29,5.69,1.71.41,3.99-.37,5.29-1.44,3.76-3.07,7.24-6.73,10.6-10.22,3.28-3.42,14.98-18.3,17.44-22.28,2.37-3.83,5.21-7.36,7.58-11.21,8.98-14.59,15.54-28.5,18.53-37.26,1.59-4.68,3.13-9.37,4.64-14.07,1.34-4.19,3.06-8.08,3.3-12.53Z"/>
  <path d="m329.27,101.45c-.17,1.52-.7,3.51-.43,5.02,1.21-.24,13.12-12.12,13.86-12.72.75-.6.87-1.21,1.44-1.9.84-1.02,2.23-.49,3.3-1.37,1-.83,2.16-2.7,3.29-3.22,1.1-.51,1.92.79,3.09.77,1.02-.02,3.66,1.39,4.07,2.12.52.93.13,2.13-.44,2.91-.95,1.3-5.41,4.9-6.04,5.82-.3.45-.07.59-.63,1.01-.7.53-1.72.84-2.47,1.35-2.73,1.85-13.7,11.46-14.97,12.83-1.56,1.67-6.52,6.12-5.01,8.77,1.09,1.92,6.11-1.82,7.33-2.72,2.67-1.96,5.1-4.5,6.79-7.37.82-1.39.86-3.34,1.95-4.53.94-1.03,2.11-.94,3.33-1.27,1.12-.3,1.48-.71,1.71-1.77.21-.96.21-3.47,1.87-3.03,1.08.28,1.29,1.87,2.58,2.2,1.4.36,3.04-.27,4.46-.26,1.86,0,3.73.43,5.54.8,1.42.29,3.27.56,3.28,2.4,0,1.31-1.26,1.74-1.8,2.78-.76,1.45,2.2,12.27,4.82,15.36,3.72,3.93,7.35,4.37,9.42,4.45,4.25.17,9.11-2.04,13.22-2.83,2.13-.41,4.02-.68,6.03-1.56,1.72-.76,3.66-2.1,5.51-2.38.2,1.61-1.73,2.45-2.82,3.28-1.28.97-1.68,2.63-2.92,3.66-1.55,1.28-3.51,2.01-5.11,3.2-.87.65-.5.94-1.05,1.74-.56.82-11.46,4.36-15.75,4.64-4.47.29-8.38-.1-12.37-2.33-3.77-2.11-10.54-9.57-11.42-9.83-.55-.16-.79.2-1.39-.31-.67-.56-.96-2.39-1.76-2.74-.79-.34-1.84.92-2.36,1.37-1.48,1.28-3.21,2.1-4.87,3.11-2.06,1.26-4.05,2.61-6.15,3.81-3.72,2.12-8.96,3.11-13.22,3.05-2.59-.04-3.67-.77-4.83-3.06-.92-1.81-2.3-5.28.72-12.11,1-1.9,3.23-3.59,3.76-5.67-.51.23-.95.56-1.41.88,1.36-3.44,5.08-5.6,5.58-9.41.14-1.1.34-3.26-.58-4.11-.85-.79-4.95-.65-5.78.07.43.13.88.21,1.33.24-.94.78-1.91.68-3.05,1.06-1.4.47-2.72,1.25-4.06,1.87-1.46.68-10.48,7.7-11.54,8.7-1.37,1.29-2.77,2.55-4.14,3.85-2.62,2.5-4.97,5.24-7.27,8.03-1.96,2.38-3.74,4.46-6.06,6.49-.92.8-2.04,2.44-3.41,2.35-1.44-.09-3.02-2.37-3.77-3.44-2.1-3-2.07-6.08-1.83-9.58.12-1.81,1.59-9,1.71-10.8.03-.4.12-1.7-.38-1.98-.6-.33-12.81,14.76-13.3,16.35-.38,1.2-5.56,8.77-6.54,9.49-1.61,1.19-3.23,2.37-4.77,3.65-2.41,2.01-4.41,4.54-7.8,4.44-3.13-.09-3.7-5.58-3.77-8.01-.1-3.56.18-7.27.96-10.75.16-.7,1.17-3.25.64-3.96-.87-1.17-3.07.81-3.75,1.32-1.31.99-6.43,5.25-7.82,6.27-2.71,1.97-5.04,4.38-7.8,6.32-2.95,2.07-6.1,4.21-9.38,5.73-3.12,1.44-5.81.63-7.01-2.64-1.25-3.43-.28-6.66,1.44-9.66,1.78-3.1,6.52-12.36,7.39-13.75.87-1.39,2.11-2.7,2.71-4.23.5-1.29.36-2.66,1.17-3.81,1.07-1.53,8.77-8.36,10.93-10.85.54-.62,1.84-2.78,2.82-2.79,1.04,0,1.79,2.14,2.57,2.78.99.8,2.28.45,3.31,1.13,1.25.81,1.64,2.5,2.13,3.8.36.95.95,3.1,2.17,3.3,1.27.21,4.98-5.05,5.63-6.35.72-1.44,1.47-2.81,2.41-4.13.89-1.24,1.58-1.63,2.86-.67,1.04.77,2.11,1.45,2.87,2.49.86,1.17,1.72,2.46,2.16,3.86.49,1.57-.12,2.79-.22,4.37-.1,1.53.15,2.27-.87,3.51-1.01,1.23-7.05,11.49-7.1,12.82-.04,1.18,1.22,1.17,2.11.58,1.26-.84,2.27-2.68,3.24-3.84,2.21-2.67,4.5-5.28,6.68-7.98,2.23-2.77,4.64-5.29,7.23-7.71,2.35-2.2,4.42-4.91,7.47-6.14,1.15-.47,2.81-1.04,4.06-.77,1.41.32,2.59,1.98,3.29,3.16,1.85,3.12.79,6.43.27,9.77-.29,1.82-1.86,8.88-1.46,10.45,4.13-1.93,20.03-12.55,24.38-14.77,4.18-2.13,19.27-10.09,19.81-.43Zm-110.89,22.52c.58.68.93,1.48,1.95,1.41.91-.07,1.79-1.02,2.48-1.54,2.19-1.64,4.3-3.37,6.41-5.12,2.26-1.87,4.53-3.72,6.75-5.62,1.68-1.44,2.51-3.08.69-4.88-3.39-3.34-8.59,1.6-10.92,4.07-1.69,1.79-3.43,3.62-4.99,5.52-1.45,1.76-1.91,3.99-2.38,6.16Z"/>
  <path d="m88.24,126.83c.29-2.5,1.01-5.03,2.04-7.32,1.93-4.28,5.06-8.38,8.68-11.36,3.44-2.83,7.53-5.98,11.98-6.89,1.05-.21,5.06-1.52,6.16-1.62,2.26-.21,4.01,2,5.66-.42,1.41-2.08,2.35-4.62,3.49-6.85,1.31-2.56,2.65-5.1,3.94-7.68,1.13-2.26,2.1-4.65,2.77-7.09.68-2.48.2-5.17.3-7.71.04-.89-.06-2.1.71-2.73.81-.66,1.81-.52,2.52-1.46.82-1.1,1.56-5.19,3.4-4.89,1.9.31,2.67,3.78,4.15,1.19.59-1.03.98-1.9,2.27-1.97,1.09-.06,2.21.46,2.94,1.24,1.58,1.67.98,3.74.61,5.75-.47,2.61-1.41,4.77-2.87,6.99-2.82,4.3-3.91,9-5.41,13.86-3.21,10.42-6.59,20.97-7.25,31.9-.15,2.55.04,13.21,1.26,15.56.89,1.72,1.29,3.95,3.28,2.17,1.97-1.76,3.66-3.74,5.33-5.78,3.45-4.23,6.72-8.59,9.89-13.04,3.05-4.27,5.47-8.89,8.25-13.34.8-1.29,1.51-2.33,1.76-3.83.22-1.29.28-2.71.73-3.95.46-1.25,1.39-2.32,2.11-3.42.68-1.03,1.19-2.39,2.12-3.22,1.95-1.75,3.12.4,4.9.93,2.3.68,2.46-2.77,4.76-2.46,2.35.31,2.09,4.01,1.38,5.57-.59,1.32-1.16,2.43-1.54,3.84-.39,1.42-.78,2.85-1.15,4.28-.72,2.79-1.42,5.58-1.55,8.47-.12,2.63-.57,6.49.48,8.93,1.33-.87,10.67-13.96,12.66-16.98.46-.69.8-1.66,1.6-2,.88-.37,2.36.03,3.34-.1,1.73-.22,4.01-1.57,4.79.7,1.03,3.01-.3,6.15-.59,9.14-.31,3.18,1.06,16.53,1.82,19.86.6,2.66,5.43-2.37,7.3-2.82.49,2.26-1.26,6.79-2.03,8.93-.7,1.94-3.73,4.49-4.41,6.45-.56,1.61-1.68,2.89-3.24,3.61-2.13.99-2.9-.44-3.55-2.29-1.55-4.4-5.09-22.27-5.33-26.79-1.65,1.34-6.54,9.58-8.05,11.43-1.38,1.7-2.86,3.3-4.33,4.91-1.62,1.79-3.1,3.52-4.65.66-2.3-4.23-3.43-9.56-3.98-14.29-.15-1.29-.4-6.49-.8-7.45-.21-.51-.12-1-.83-.63-.69.36-1.78,2.87-2.22,3.57-2.71,4.28-13.81,20.49-16.64,24.31-1.37,1.85-7.85,7.35-9.92,8.35-1.65.8-2.74,1.39-4.32.06-1.56-1.31-2.77-3.61-3.58-5.43-2.17-4.87-2.96-10.59-3.44-15.85-.26-2.86-.34-5.73-.24-8.59.05-1.42.16-2.83.27-4.24.1-1.31.47-2.91.16-4.17-.92.65-3.35,6.15-4.02,7.57-1.16,2.46-2.56,4.73-4.03,7.01-3.12,4.85-14.18,16.85-16.04,18.46-2,1.74-3.42,3.44-6.23,3.67-2.48.2-4.6-.32-5.65-2.82-1.16-2.77-2.24-15.16-1.92-17.91Zm10,3.61c2.15-.58,3.44-1.16,5.06-2.74,1.63-1.59,3.32-3.06,4.78-4.82,1.59-1.92,8.2-11.65,8.37-12.81-.92.59-4.6,2.8-5.58,3.67-.79.71-4.16,3.31-5.02,4.15-1.91,1.87-3.67,3.94-5.18,6.15-1.07,1.57-3.29,4.57-2.43,6.4Z"/>
  <path d="m667.37,60.12c-.87-.64-1.73-1.33-2.7-1.81-.79-.39-1.71-.52-2.42-1.05-.78-.58-.99-1.37-1.95-1.74-.91-.35-1.91-.39-2.84-.77-2.24-.92-4.7-1.72-6.87-2.76-1.36-.65-3.06-2.62-1.84-4.08.65-.78,1.46-.68,2.37-.87.93-.19,1.45-.88,2.28-1.11,2.16-.58,4.9.97,7.07.02.32-.14.19-.67.54-.74.31-.06.59.33.84.42,1.09.43,1.94.58,3.13.65,2.46.16,5.37-.12,7.7.69-1.45.99-1.11,1.81.54,2.14.29.06.62-.12.92,0,.26.11.31.56.49.64.65.26,1.29-.15,1.87-.51,1.52-.95,2.24-2.68,3.69-3.74,1.79-1.31.46,1.87.09,2.73-.61,1.42-1.99,1.98-2.66,3.29-.75,1.47-1.55,2.39-2.98,3.32-.67.43-1.4.84-2.1,1.22-.56.31-1.23.28-1.73.56-.49.27-.82,1.07-1.1,1.53-.68,1.11-1.19,1.35-2.33,1.96Z"/>
  <path d="m201.56,72.27c2.62-.32,5.99-.45,8.34.86,1.19.66,2.04,1.46,3.38,1.92,1.14.39,2.65.46,3.55,1.33.64.61.98,1.59.8,2.47-.34,1.67-1.39,1.02-2.38,1.86-2.14,1.81.44,2.8.48,4.65.05,2.24-4.04,1.92-5.31,1.4-2.75-1.14-4.95-2.15-7.17-4.2-.98-.91-1.93-1.89-2.51-3.11-.53-1.1-.51-2.3-.9-3.44-.76-2.19-1.57-3.97,1.72-3.74Z"/>
</svg>