<?xml version="1.0" encoding="utf-8"?>
<!-- Generator: Adobe Illustrator 27.7.0, SVG Export Plug-In . SVG Version: 6.00 Build 0)  -->
<svg version="1.1" id="Layer_5_xA0_Image_00000167379985474269741800000001753988875051613069_"
	 xmlns="http://www.w3.org/2000/svg" xmlns:xlink="http://www.w3.org/1999/xlink" x="0px" y="0px" viewBox="0 0 397.92 436.32"
	 style="enable-background:new 0 0 397.92 436.32;" xml:space="preserve">
<g>
	<path d="M76.19,294.97c-1.52-8.87,3.44-22.41,6.18-30.99c3.37-10.53,7.93-20.48,12.68-30.42c5.53-11.58,11.01-23.19,16.78-34.65
		c5.3-10.53,12.36-20,18.98-29.71c6.13-9,11.95-19.12,19.48-27.09c0.26-0.27,0.38-0.68,0.56-1.02c-0.31,0.12-0.61,0.26-0.92,0.35
		c-0.17,0.05-0.36,0.02-0.54,0.02c0.02-0.19-0.01-0.41,0.07-0.56c0.17-0.31,0.36-0.64,0.62-0.87c4.34-3.93,8.47-8.13,13.1-11.7
		c5.34-4.11,10.99-7.84,16.76-11.32c1.66-1,4.22-0.99,6.28-0.74c11.13,1.37,21.55,5.04,31.27,10.56c3.19,1.81,2.86,4.82-0.64,6.24
		c-3.47,1.41-7.18,2.19-10.71,3.48c-11.56,4.23-21.55,11.06-30.44,19.43c-4.1,3.86-7.79,8.19-11.36,12.56
		c-7.52,9.22-14.83,18.62-22.23,27.94c-1.26,1.58-2.54,3.15-3.83,4.7c-0.13,0.15-0.39,0.19-0.59,0.29c0.06-0.22,0.06-0.47,0.18-0.65
		c0.76-1.07,1.56-2.13,2.27-3.23c0.19-0.29,1.02-2.24,1-2.23c-3.66,2.33-5.97,6.77-8.57,10.17c-1.55,2.03-3.07,4.08-4.52,6.18
		c-1.14,1.66-2.14,3.41-3.22,5.11c-0.16,0.24-0.47,0.39-0.71,0.58c0.06-0.28,0.06-0.6,0.2-0.83c3.14-5.14,6.26-10.3,9.41-15.44
		c2.33-3.81,6.34-7.47,8.12-11.41c-4.38,2.6-7.51,6.82-10.52,10.93c-10.07,13.76-17.51,30.05-23.58,45.99
		c-4.5,11.84-6.81,24.52-9.91,36.87c-0.62,2.47-0.47,5.15-0.6,7.74c-0.02,0.45,0.3,0.93,0.46,1.39c0.38-0.31,0.97-0.56,1.09-0.95
		c0.5-1.67,0.83-3.4,1.3-5.09c0.09-0.31,0.49-0.54,0.74-0.81c0.03,0.34,0.16,0.71,0.09,1.03c-1.35,6.35,0.87,13.22,1.21,19.54
		c0.05,1.02-0.84,2.07-1.22,3.13c-0.22,0.61-0.3,1.27-0.44,1.91c0.48-0.35,1-0.66,1.43-1.07c3.95-3.8,8.4-7.21,11.71-11.5
		c8.7-11.31,17.03-22.91,25.24-34.58c7.75-11.03,15.05-22.36,22.73-33.44c3.75-5.42,5.15-11.61,6.77-17.78
		c3.71-14.15,7.31-28.32,11.18-42.42c0.7-2.54,2.36-4.86,3.84-7.11c1.51-2.28,7.45-3.45,9.84-3.01c2.19,0.41,4.42,0.31,6.55,0.83
		c4.42,1.09,14.63,1.64,14.8,7.92c0.06,2.39-1.27,4.86-2.07,7.04c-1.11,3.04-2.22,6.09-3.34,9.13c-2.28,6.21-4.61,12.39-7.14,18.51
		c-4.58,11.08-8.16,22.55-11.29,34.12c-0.59,2.17-1.17,4.34-1.75,6.51c-2.41,9.05-4.73,18.12-6.81,27.25
		c-1.04,4.56-2.02,9.14-2.93,13.73c-0.82,4.18-0.47,8.56,0.24,12.76c0.52-0.42,1.18-0.75,1.55-1.28
		c6.85-9.99,13.39-20.21,20.57-29.96c6.99-9.49,14.66-18.48,21.9-27.78c0.65-0.84,0.77-2.53,0.45-3.62
		c-1.49-5.09-4.01-10-4.64-15.17c-0.54-4.39,0.61-9.12,1.66-13.56c4.15-17.63,13.52-32.45,24.98-46.21
		c6.36-7.65,14.11-13.26,22.85-17.72c4.61-2.35,9.4-3.23,14.63-2.47c5.25,0.76,10.61,0.7,15.86,1.47c7.47,1.1,9.35,4.68,6.06,11.55
		c-1.04,2.16-3.17,3.81-4.85,5.64c-2.61,2.85-5.27,5.65-7.89,8.48c-8.12,8.76-16.37,17.41-24.33,26.31
		c-7.51,8.4-14.69,17.1-22.09,25.61c-1.74,2-1.34,4.08-0.58,6.16c0.16,0.42,1.37,0.71,2.05,0.64c16.17-1.7,31.97,0.05,47.57,4.52
		c9.79,2.8,16.83,9.19,23.77,16.15c4.72,4.74,4.83,10.25,3.98,15.89c-1.98,13.06-4.04,26.24-12.08,37.28
		c-7.24,9.94-16.34,18.07-26.32,25.2c-4.58,3.28-9.27,6.41-13.91,9.6c-1.63,1.12-3.18,1-5.22,0.7c-2.59-0.37-5.17,1.06-7.6,1.74
		c-0.62,0.17-7.8,1.08-7.72,0.63c0.15-0.81-0.34-1.64-1.03-2.09s-1.55-0.57-2.37-0.56c-2.33,0.02-4.1,1.43-6.36,1.73
		c-1.55,0.21-3.13,0.12-4.7,0.16c1.02-0.82,2.01-1.68,3.06-2.45c1.14-0.83,1.27-1.29-0.31-1.68c-2.24-0.54-4.44-1.24-6.65-1.88
		c-0.18-0.05-0.35-0.16-0.53-0.25c0.18-0.02,0.41,0.02,0.52-0.07c0.4-0.35,1.15-0.93,1.07-1.09c-0.57-1.2-1.26-2.35-2.01-3.46
		c-0.6-0.89-1.33-1.68-2-2.52c0.27-0.18,0.56-0.54,0.81-0.52c11.6,1.09,21.16-3.56,29.19-11.26c10.99-10.54,20.22-22.57,27.66-35.89
		c4.26-7.63,11.18-24.61,6.59-33.35c-3.97-7.55-26.53-2.75-33.18-0.54c-4.07,1.35-8.98,0.45-13.47,0.14
		c-3.72-0.26-7.4-1.16-11.1-1.8c-0.78-0.13-1.55-0.56-2.31-0.51c-1.43,0.08-3.5-0.12-4.16,0.71c-4.5,5.6-9.14,11.18-12.9,17.28
		c-6.31,10.23-11.64,21.07-18.07,31.21c-5.13,8.1-10.61,16.17-17.15,23.11c-6.89,7.31-15.61,4.83-18.59-4.84
		c-2.64-8.57-3.65-17.58-3.68-26.53c-0.03-8.96,1.33-17.62,2.18-26.5c0.18-1.9,0.36-3.79,0.55-5.69c0.04-0.39-0.11-0.8-0.17-1.2
		c-0.24,0.3-0.52,0.58-0.7,0.92c-9.36,17.11-18.47,34.37-28.17,51.28c-3.73,6.51-8.58,12.44-13.36,18.27
		c-4.44,5.41-11.2,5.45-17.5,6.21c-2.01,0.24-4.08,0.31-6.1,0.15c-9.12-0.71-14.04-6.42-16.31-14.6
		C77.51,305.12,77.05,299.99,76.19,294.97z M244.62,209.72c0.46,1.11,0.61,1.49,0.77,1.87c0.35-0.21,0.78-0.34,1.04-0.63
		c4.81-5.44,9.98-10.62,14.32-16.42c8.7-11.63,16.97-23.59,25.31-35.48c0.67-0.96,0.54-2.49,0.78-3.76
		c-1.3,0.21-2.81,0.07-3.88,0.69c-7.79,4.45-14.94,9.95-19.86,17.39c-5.38,8.13-9.74,16.96-14.26,25.63
		C246.99,202.52,245.89,206.43,244.62,209.72z"/>
	<path d="M203.56,415.13c-14.86-1.44-31.55-2.36-48-4.81c-20.72-3.09-39.68-11.25-57.04-23.07c-17.97-12.23-34.65-25.85-48.55-42.72
		C39.4,331.7,31.36,316.92,26.5,301.02c-2.5-8.16-4.1-16.53-5.11-24.99c-1.94-16.14-3.83-29.76,0.42-45.7
		c1.17-4.38,1.97-8.86,2.95-13.29c0.06-0.26,0.17-0.51,0.25-0.77c0.25,0.15,0.6,0.24,0.74,0.46c1.85,2.99,3.67,6,5.5,9.01
		c0.04,0.07,0.04,0.2,0.09,0.21c2.71,0.93,0.84,3.32,1.54,4.89c0.11,0.25,0,0.63,0.15,0.81c4.4,5.26,1.69,16.77,2.43,23.33
		c0.98,8.72,2.69,17.35,5.51,25.67c3.68,10.86,7.81,21.82,13.64,31.62c5.87,9.88,13.75,18.65,21.33,27.4
		c5.05,5.83,10.87,11.06,16.76,16.08c24.69,21.02,57.62,31.33,89.05,35.62c7.42,1.01,14.99,0.99,22.49,1.28
		c21.56,0.84,41.95-3.34,61.15-13.53c13.87-7.37,28.54-13.32,41.13-22.91c21.23-16.18,34.57-43.21,44.48-67.15
		c4.51-10.89,6.65-22.51,7.84-34.28c2.15-21.3,4.85-42.39,6.65-63.68c0.02-0.28,0.55-0.78,0.62-0.74c1.04,0.52,2.69,0.91,2.95,1.73
		c1.63,5.19,2.94,10.49,4.4,15.74c0.23,0.82,0.81,1.55,1.01,2.37c1.35,5.49,3.32,10.94,3.8,16.51c0.8,9.24,0.64,18.57,0.88,27.87
		c0.02,0.88-0.02,1.76,0.04,2.64c1.26,17.99-7.84,37.79-15.16,53.8c-7.86,17.2-16.79,34.43-30.17,48.04
		c-28.62,29.13-63.43,47.04-103.76,53.77C221.96,414.17,213.63,414.29,203.56,415.13z"/>
	<path d="M188.78,49.23c31.48,0.86,57.45,3.78,82.45,12.18c14.99,5.04,28.71,12.72,41.42,22.31c15.01,11.34,27.89,23.77,39.29,38.6
		c7.68,9.99,13.88,20.92,17.8,32.96c1.14,3.51,1.63,7.32,1.83,11.03c0.09,1.74-0.7,4.24-1.99,5.21c-3.09,2.34-4.06,5.42-4.92,8.86
		c-0.27,1.08-1.74,2.24-2.88,2.56c-0.69,0.2-2.03-0.98-2.71-1.83c-4.52-5.65-4.81-12.86-6.82-19.4
		c-9.03-29.33-33.19-55.47-58.25-72.25c-15.57-10.43-32.23-19.08-51.15-21.73c-25.15-3.51-50.31-6.91-75.03,1.11
		c-28.86,9.37-59.29,20.09-80.47,43.08c-13,14.11-24.33,27.77-31.94,45.4c-4.83,11.18-9.25,22.55-13.53,33.95
		c-2.11,5.61-4.59,7.57-12.03,7.92c-3.82,0.18-3.68,0.21-2.92-3.56c2.14-10.49,3.92-21.05,6.28-31.49
		c3.56-15.79,10.45-30.09,20.34-42.91c15.82-20.53,35.09-37.18,57.37-50.31C132.52,58.2,163.55,48.54,188.78,49.23z"/>
</g>
</svg>
